<?xml version="1.0" encoding="utf-8"?>
<svg viewBox="25.727 133.742 320.891 98.035" xmlns="http://www.w3.org/2000/svg">
  <defs>
    <clipPath id="id1">
      <path d="M 13.949219 122.386719 L 83 122.386719 L 83 190 L 13.949219 190 Z M 13.949219 122.386719 " clip-rule="nonzero"/>
    </clipPath>
    <clipPath id="id2">
      <path d="M 13.949219 122.386719 L 109 122.386719 L 109 216 L 13.949219 216 Z M 13.949219 122.386719 " clip-rule="nonzero"/>
    </clipPath>
    <clipPath id="id3">
      <path d="M 68 176 L 139 176 L 139 243.136719 L 68 243.136719 Z M 68 176 " clip-rule="nonzero"/>
    </clipPath>
    <clipPath id="id4">
      <path d="M 42 149 L 139 149 L 139 243.136719 L 42 243.136719 Z M 42 149 " clip-rule="nonzero"/>
    </clipPath>
  </defs>
  <path fill="#b61512" d="M 25.726562 162.628906 L 54.574219 133.742188 L 68.652344 133.742188 L 25.726562 175.4375 Z M 25.726562 162.628906 " fill-opacity="1" fill-rule="nonzero"/>
  <g clip-path="url(#id1)">
    <path stroke-linecap="butt" transform="matrix(4.600556, 0, 0, 4.606927, 13.950715, 122.871306)" fill="none" stroke-linejoin="miter" d="M 2.559657 8.62996 L 8.830129 2.359681 L 11.890221 2.359681 L 2.559657 11.41025 Z M 2.559657 8.62996 " stroke="#1d1d1b" stroke-width="0.209" stroke-opacity="1" stroke-miterlimit="10"/>
  </g>
  <path fill="#b61512" d="M 25.726562 187.046875 L 79.277344 133.742188 L 94.550781 133.742188 L 25.726562 202.15625 Z M 25.726562 187.046875 " fill-opacity="1" fill-rule="nonzero"/>
  <g clip-path="url(#id2)">
    <path stroke-linecap="butt" transform="matrix(4.600556, 0, 0, 4.606927, 13.950715, 122.871306)" fill="none" stroke-linejoin="miter" d="M 2.559657 13.930232 L 14.199724 2.359681 L 17.519636 2.359681 L 2.559657 17.20994 Z M 2.559657 13.930232 " stroke="#1d1d1b" stroke-width="0.209" stroke-opacity="1" stroke-miterlimit="10"/>
  </g>
  <path stroke-linecap="butt" transform="matrix(3.253028, -3.257646, 3.253141, 3.257533, -7.633987, 177.967255)" fill-opacity="1" fill="#b61512" fill-rule="nonzero" stroke-linejoin="miter" d="M 1.070218 10.540354 L 23.119947 10.539797 L 23.119631 12.73991 L 1.069902 12.740466 Z M 1.070218 10.540354 " stroke="#1d1d1b" stroke-width="0.209" stroke-opacity="1" stroke-miterlimit="10"/>
  <path fill="#0a336b" d="M 125.332031 202.894531 L 96.484375 231.777344 L 82.40625 231.777344 L 125.332031 190.085938 Z M 125.332031 202.894531 " fill-opacity="1" fill-rule="nonzero"/>
  <g clip-path="url(#id3)">
    <path stroke-linecap="butt" transform="matrix(4.600556, 0, 0, 4.606927, 13.950715, 122.871306)" fill="none" stroke-linejoin="miter" d="M 24.210403 17.370195 L 17.939931 23.639625 L 14.879839 23.639625 L 24.210403 14.589905 Z M 24.210403 17.370195 " stroke="#1d1d1b" stroke-width="0.209" stroke-opacity="1" stroke-miterlimit="10"/>
  </g>
  <path fill="#0a336b" d="M 125.332031 178.476562 L 71.78125 231.777344 L 56.503906 231.777344 L 125.332031 163.367188 Z M 125.332031 178.476562 " fill-opacity="1" fill-rule="nonzero"/>
  <g clip-path="url(#id4)">
    <path stroke-linecap="butt" transform="matrix(4.600556, 0, 0, 4.606927, 13.950715, 122.871306)" fill="none" stroke-linejoin="miter" d="M 24.210403 12.069922 L 12.570336 23.639625 L 9.249576 23.639625 L 24.210403 8.790215 Z M 24.210403 12.069922 " stroke="#1d1d1b" stroke-width="0.209" stroke-opacity="1" stroke-miterlimit="10"/>
  </g>
  <path stroke-linecap="butt" transform="matrix(-3.253027, 3.257647, -3.253142, -3.257532, 175.946686, 187.959091)" fill-opacity="1" fill="#0a336b" fill-rule="nonzero" stroke-linejoin="miter" d="M 3.660291 13.260201 L 25.710019 13.259646 L 25.709703 15.459759 L 3.659975 15.460314 Z M 3.660291 13.260201 " stroke="#1d1d1b" stroke-width="0.209" stroke-opacity="1" stroke-miterlimit="10"/>
  <path fill="#1d1d1b" d="M 191.394531 206.71875 L 190.105469 187.644531 C 189.96875 184.878906 189.875 181.195312 189.875 177.832031 L 189.738281 177.832031 C 188.910156 181.148438 187.714844 184.878906 186.65625 187.738281 L 179.753906 206.855469 L 174.511719 206.855469 L 167.5625 187.78125 C 166.503906 184.925781 165.261719 181.101562 164.34375 177.785156 L 164.203125 177.785156 C 164.296875 181.332031 164.203125 184.835938 164.066406 187.597656 L 162.777344 206.671875 L 153.394531 206.671875 L 156.890625 158.804688 L 166.320312 158.804688 L 174.1875 179.582031 C 175.382812 182.667969 176.71875 186.769531 177.636719 189.996094 L 177.777344 189.996094 C 178.695312 186.769531 179.9375 182.808594 181.136719 179.582031 L 188.863281 158.804688 L 197.652344 158.804688 L 201.238281 206.671875 L 191.394531 206.671875 Z M 191.394531 206.71875 " fill-opacity="1" fill-rule="nonzero"/>
  <path fill="#1d1d1b" d="M 230.867188 206.71875 L 227.875 195.753906 L 216.328125 195.753906 L 213.339844 206.71875 L 203.769531 206.71875 L 218.398438 158.621094 L 226.589844 158.621094 L 241.21875 206.71875 Z M 223.230469 177.648438 C 222.863281 176.21875 222.492188 174.332031 222.171875 172.71875 L 222.035156 172.71875 C 221.710938 174.375 221.34375 176.265625 220.976562 177.648438 L 218.492188 187.460938 L 225.621094 187.460938 Z M 223.230469 177.648438 " fill-opacity="1" fill-rule="nonzero"/>
  <path fill="#1d1d1b" d="M 260.082031 187.09375 L 260.082031 206.671875 L 250.050781 206.671875 L 250.050781 187.320312 L 236.066406 158.804688 L 246.785156 158.804688 L 252.71875 170.875 C 253.546875 172.535156 254.515625 174.929688 255.25 176.863281 L 255.386719 176.863281 C 256.125 174.929688 257.183594 172.535156 258.011719 170.875 L 263.945312 158.804688 L 274.066406 158.804688 Z M 260.082031 187.09375 " fill-opacity="1" fill-rule="nonzero"/>
  <path fill="#1d1d1b" d="M 302.359375 169.492188 C 300.703125 168.433594 298.035156 167.464844 295.089844 167.464844 C 288.328125 167.464844 283.496094 173.824219 283.496094 182.945312 C 283.496094 192.066406 288.28125 198.332031 295.503906 198.332031 C 298.496094 198.332031 301.070312 197.640625 302.867188 196.675781 L 301.992188 205.796875 C 299.96875 206.761719 297.253906 207.316406 293.617188 207.316406 C 282.898438 207.316406 273.101562 198.609375 273.101562 182.761719 C 273.101562 166.914062 282.992188 158.207031 293.617188 158.207031 C 298.355469 158.207031 301.945312 159.175781 304.199219 160.511719 Z M 302.359375 169.492188 " fill-opacity="1" fill-rule="nonzero"/>
  <path fill="#1d1d1b" d="M 326.097656 207.59375 C 314.6875 207.59375 305.625 197.824219 305.625 182.761719 C 305.625 167.695312 314.6875 157.929688 326.097656 157.929688 C 337.414062 157.929688 346.617188 167.695312 346.617188 182.761719 C 346.617188 197.824219 337.414062 207.59375 326.097656 207.59375 Z M 326.097656 167.28125 C 320.761719 167.28125 316.207031 173.132812 316.207031 182.808594 C 316.207031 192.480469 320.761719 198.332031 326.097656 198.332031 C 331.34375 198.332031 336.082031 192.480469 336.082031 182.808594 C 336.082031 173.179688 331.34375 167.28125 326.097656 167.28125 Z M 326.097656 167.28125 " fill-opacity="1" fill-rule="nonzero"/>
</svg>