<?xml version="1.0" encoding="utf-8"?>
<!-- Generator: Adobe Illustrator 16.0.0, SVG Export Plug-In . SVG Version: 6.00 Build 0)  -->
<!DOCTYPE svg PUBLIC "-//W3C//DTD SVG 1.1//EN" "http://www.w3.org/Graphics/SVG/1.1/DTD/svg11.dtd">
<svg version="1.1" id="Layer_1" xmlns="http://www.w3.org/2000/svg" xmlns:xlink="http://www.w3.org/1999/xlink" x="0px" y="0px"
	 width="334px" height="100px" viewBox="0 0 334 100" enable-background="new 0 0 334 100" xml:space="preserve">
<g>
	<defs>
		<rect id="SVGID_1_" x="0.681" y="1.5" width="332.637" height="95.75"/>
	</defs>
	<clipPath id="SVGID_2_">
		<use xlink:href="#SVGID_1_"  overflow="visible"/>
	</clipPath>
	<path clip-path="url(#SVGID_2_)" fill="#E2001D" d="M107.708,15.179c0.126,0,13.022,0.246,13.853,0.246
		c0.818,0,1.725-0.089,2.165-1.063c0.773-1.725,4.151-9.842,4.396-10.62c0.007-0.048,0.014-0.095,0.027-0.157
		c0.034-0.218,0.105-0.586-0.068-0.838c-0.18-0.266-0.6-0.381-0.923-0.436c-1.547-0.266-7.706-0.436-11.264-0.436
		c-0.951,0-1.646,0.013-1.97,0.034c-1.332,0.095-2.798,0.354-3.537,1.5c-0.767,1.186-4.315,8.254-4.481,10.258
		c-0.034,0.382,0.051,0.682,0.259,0.914C106.584,15.043,107.442,15.173,107.708,15.179"/>
	<path clip-path="url(#SVGID_2_)" fill="#FFFFFF" d="M45.895,21.3l-0.699,0.006c-1.216,0.007-3.742,0.027-6.151,0.027
		c-3.071,0-4.863-0.034-5.47-0.095c-0.999-0.116-1.472-0.613-1.697-1.016c-0.62-1.138,0.058-2.74,0.372-3.38
		c0.586-1.18,1.847-1.772,3.739-1.772h21.49c1.936,0,2.631-0.879,3.057-1.738c0.3-0.6,2.263-4.751,3.562-7.961
		c0.354-0.893,0.413-1.629,0.146-2.126c-0.3-0.573-0.958-0.729-0.964-0.729c-0.954-0.246-5.368-0.525-21.058-0.525
		c-6.209,0-12.003,0.041-14.788,0.068l-1.445,0.014c-4.195,0.014-5.088,1.929-5.381,2.549C20.349,5.181,8.268,32.104,3.115,43.595
		l-2.126,4.744c-0.246,0.538-0.46,1.281-0.153,1.758c0.272,0.416,0.858,0.532,1.135,0.532h13.598c2.157,0,2.569-0.859,2.75-1.233
		c0.055-0.116,0.613-1.404,1.264-2.903c1.722-3.974,4.598-10.634,5.269-11.956c0.515-1.022,1.68-1.588,3.271-1.588l1.752,0.007
		c2.641,0.006,7.971,0.014,9.948,0.014c2.246,0,2.938-1.227,3.35-1.97c0.381-0.681,3.029-5.78,3.871-7.893
		c0.164-0.402,0.304-0.961,0.058-1.329C46.855,21.423,46.297,21.3,45.895,21.3"/>
	<path clip-path="url(#SVGID_2_)" fill="#FFFFFF" d="M87.557,38.674l-0.085,0.013c-0.048,0-4.836,0.293-8.5,0.293
		c-1.285,0-2.311-0.034-3.03-0.102c-1.271-0.13-1.871-0.75-2.15-1.241c-0.845-1.485,0.126-3.612,0.238-3.857
		c0.12-0.239,11.628-24.64,12.995-27.802c1.305-3.034,0.565-3.462,0.205-3.667c-0.699-0.3-6.393-0.3-8.264-0.3l-3.023,0.007
		c-3.476,0-4.809,1.636-5.289,2.604c-0.338,0.688-8.629,20.938-13.08,31.816c-1.81,4.403-3.094,7.545-3.21,7.832
		c-0.31,0.729-0.964,3.156-0.03,4.799c0.511,0.893,1.445,1.438,2.788,1.615c1.333,0.19,4.536,0.293,8.799,0.293
		c7.14,0,14.317-0.286,15.677-0.627c1.738-0.428,3.125-3.374,4.607-6.488c0.375-0.791,0.753-1.602,1.159-2.385
		c1.008-2.011,0.767-2.59,0.702-2.692C87.962,38.62,87.598,38.667,87.557,38.674"/>
	<path clip-path="url(#SVGID_2_)" fill="#FFFFFF" d="M120.086,21.641c-0.197-0.272-0.565-0.313-0.937-0.313
		c-0.341,0-14.62-0.034-14.62-0.034c-1.503,0.062-2.365,0.62-3.063,2.011c-0.846,1.684-9.709,22.492-10.214,24.374
		c-0.654,2.481-0.007,3.032,0.791,3.251c0.927,0.266,4.621,0.443,9.396,0.443c1.574,0,3.07-0.021,4.222-0.055
		c3.098-0.102,4.011-2.419,4.563-3.804c0.055-0.136,0.106-0.259,0.147-0.368c0.174-0.416,0.593-1.383,1.166-2.705
		c2.358-5.474,7.272-16.863,8.332-20.012C120.485,22.595,120.273,21.893,120.086,21.641"/>
	<path clip-path="url(#SVGID_2_)" fill="#FFFFFF" d="M173.684,23.413c2.732-4.451,5.248-11.321,4.076-17.237
		c-0.791-3.967-6.408-4.144-9.775-4.246l-0.613-0.021c-0.722-0.027-2.311-0.041-4.703-0.041c-3.875,0-9.334,0.034-13.724,0.068
		c-3.217,0.021-5.981,0.034-7.413,0.034c-2.665,0-4.403,0.791-5.17,2.344c-0.239,0.478-2.814,6.278-3.79,8.473
		c-0.405,0.845-0.484,1.506-0.225,1.908c0.225,0.348,0.651,0.484,0.866,0.484l1.005-0.006c2.75-0.007,10.531-0.021,16.337-0.021
		c6.592,0,6.847,0.021,6.946,0.027c0.559,0.048,1.591,0.252,2.232,1.057c0.47,0.579,0.637,1.343,0.511,2.256
		c-0.398,2.89-3.65,2.89-4.716,2.89c-0.331,0-2.737-0.014-5.879-0.034c-5.742-0.048-14.433-0.109-16.631-0.109
		c-4.008,0-5.16,2.767-5.173,2.795c-0.099,0.218-8.411,18.934-10.064,23.188c-0.62,1.582-0.712,2.821-0.266,3.469
		c0.334,0.484,0.859,0.504,0.92,0.504c0.085,0,0.293,0,0.61,0.007c0.92,0.015,2.75,0.035,4.996,0.035
		c1.731,0,3.391-0.014,4.928-0.042c4.321-0.081,5.068-1.629,5.603-2.76l0.126-0.239c0.272-0.559,1.216-2.971,2.211-5.534
		c1.111-2.85,2.263-5.794,2.87-7.144c1.131-2.536,4.021-2.604,4.342-2.604c0.099,0,4.941,0.191,9.903,0.191
		c3.296,0,5.899-0.082,7.732-0.252C167.447,32.342,170.848,28.014,173.684,23.413"/>
	<path clip-path="url(#SVGID_2_)" fill="#FFFFFF" d="M229.941,6.169c-0.791-3.96-6.406-4.137-9.768-4.233l-0.619-0.021
		c-0.723-0.027-2.299-0.041-4.689-0.041c-3.871,0-9.338,0.034-13.727,0.061c-3.219,0.021-5.984,0.041-7.416,0.041
		c-2.672,0-4.404,0.784-5.174,2.337c-0.238,0.478-2.814,6.278-3.789,8.479c-0.404,0.838-0.471,1.492-0.227,1.901
		c0.227,0.348,0.654,0.478,0.873,0.478h0.996c2.752-0.007,10.543-0.027,16.352-0.027c6.576,0,6.836,0.027,6.938,0.034
		c0.553,0.041,1.588,0.246,2.229,1.063c0.471,0.572,0.641,1.336,0.512,2.249c-0.395,2.897-3.646,2.897-4.711,2.897
		c-0.334,0-2.738-0.021-5.881-0.047c-5.746-0.041-14.438-0.103-16.639-0.103c-3.967,0-5.117,2.686-5.166,2.801
		c-0.096,0.205-8.41,18.928-10.066,23.174c-0.613,1.595-0.703,2.821-0.266,3.476c0.34,0.484,0.871,0.497,0.926,0.497
		c0.082,0,0.287,0.007,0.613,0.007c0.914,0.014,2.74,0.042,4.99,0.042c1.73,0,3.395-0.014,4.934-0.049
		c4.309-0.074,5.059-1.622,5.604-2.746l0.123-0.246c0.273-0.559,1.213-2.971,2.215-5.534c1.111-2.85,2.256-5.794,2.863-7.15
		c1.131-2.522,4.014-2.604,4.34-2.604c0.098,0.007,4.943,0.205,9.912,0.205c3.285,0,5.889-0.082,7.729-0.252
		c5.684-0.518,9.08-4.846,11.914-9.447C228.611,18.956,231.127,12.092,229.941,6.169"/>
	<path clip-path="url(#SVGID_2_)" fill="#FFFFFF" d="M266.033,38.518c-0.574,0-1.16,0.034-1.678,0.068l-0.471,0.02
		c-1.846,0.103-8.029,0.205-12.254,0.205c-2.414,0-3.941-0.034-4.553-0.095c-1.146-0.102-1.971-0.484-2.469-1.125
		c-0.449-0.573-0.6-1.309-0.463-2.188c0.271-1.765,1.328-2.747,3.162-2.903c0.389-0.035,1.834-0.042,4.348-0.048
		c2.508-0.006,5.639-0.013,7.908-0.074c3.42-0.083,3.844-1.078,4.02-1.507c0.525-1.233,2.162-5.275,2.775-7.545
		c0.197-0.715,0.17-1.274-0.104-1.649c-0.381-0.538-1.186-0.654-1.512-0.674c-0.586-0.048-3.846-0.089-6.721-0.129
		c-2.521-0.027-4.709-0.062-5.1-0.089c-0.68-0.055-1.322-0.429-1.684-1.002c-0.285-0.45-0.537-1.227-0.102-2.358
		c0.408-1.05,1.322-2.311,3.381-2.311c0.197,0,1.215,0.027,2.727,0.054c4.479,0.109,12.801,0.287,17.586,0.287
		c4.641,0,5.732-2.337,6.141-3.217c0.088-0.17,0.178-0.361,0.279-0.573c0.531-1.063,1.336-2.679,2.371-6.277
		c0.328-1.111,0.273-1.95-0.143-2.508c-0.504-0.675-1.588-1.009-3.203-1.009c-1.248,0-32.812-0.354-34.154-0.368
		c-5.262,0-6.537,4.301-6.545,4.341l-0.025,0.083c-0.15,0.347-14.684,33.881-16.113,39.157c-0.471,1.717-0.367,2.985,0.312,3.871
		c1.174,1.534,4.09,2.216,9.441,2.216h5.922c7.594,0,15.963-0.028,20.551-0.287c4.52-0.245,5.459-1.963,5.855-2.686
		c0.709-1.302,2.793-5.603,3.258-8.001c0.123-0.695-0.09-0.954-0.164-1.042C268.275,38.729,267.402,38.518,266.033,38.518"/>
	<path clip-path="url(#SVGID_2_)" fill="#FFFFFF" d="M319.422,31.544c1.186-0.675,6.283-3.749,7.852-5.439
		c2.902-3.115,4.703-6.379,5.881-14.647c0.443-3.135-0.033-5.534-1.424-7.144c-1.84-2.119-4.785-2.228-5.357-2.228
		c-0.367,0-2.875-0.014-6.242-0.028c-7.057-0.034-17.723-0.088-21.062-0.088c-4.062,0-6.801,0.866-8.139,2.562
		c-0.967,1.228-3.176,6.864-3.945,8.929c-0.143,0.491-0.143,0.873,0.041,1.111c0.162,0.225,0.592,0.491,1.689,0.491h22.943
		c0.299,0,1.826,0.055,2.773,1.043c0.49,0.525,0.73,1.213,0.682,2.003c-0.137,2.433-2.754,3.074-4.131,3.074
		c-0.203,0-20.379-0.218-24.379-0.218c-2.98,0-3.553,1.363-3.783,1.949l-0.424,1.043c-5.289,12.971-8.553,20.904-9.691,23.576
		c-0.588,1.37-0.682,2.427-0.266,3.087c0.279,0.443,0.742,0.586,0.947,0.594c0.572,0.026,3.584,0.108,10.195,0.259h0.178
		c4.09,0,5.289-3.279,5.74-4.512c0.041-0.103,0.066-0.191,0.096-0.252l0.094-0.259c2.072-5.2,4.766-11.648,5.875-12.861
		c0.643-0.709,1.344-1.07,2.086-1.07c0.818,0,1.609,0.443,2.291,1.281c0.088,0.103,0.416,0.58,1.404,2.004
		c2.229,3.176,6.863,9.78,8.076,11.117c0.402,0.436,0.729,0.852,1.043,1.247c0.941,1.179,1.691,2.106,3.523,2.76
		c0.92,0.32,4.793,0.682,8.596,0.682c3.436,0,5.977-0.3,6.803-0.811c0.408-0.252,0.619-0.539,0.646-0.886
		c0.09-0.927-1.057-2.174-1.473-2.542c-0.416-0.416-9.65-9.583-10.824-11.928C316.586,33.167,318.65,31.987,319.422,31.544"/>
	<path clip-path="url(#SVGID_2_)" fill="#FFFFFF" d="M273.836,81.355h-2.699v11.689h2.699V81.355z M263.121,93.153
		c1.092,0,1.963-0.456,2.625-1.39v1.288h2.699v-8.82h-2.699v1.159c-0.602-0.839-1.459-1.254-2.584-1.254
		c-1.123,0-2.072,0.422-2.855,1.273c-0.77,0.84-1.166,1.93-1.166,3.245c0,1.314,0.396,2.399,1.166,3.237
		C261.09,92.738,262.023,93.153,263.121,93.153 M263.816,90.815c-0.504,0-0.953-0.177-1.35-0.559
		c-0.381-0.375-0.572-0.906-0.572-1.602s0.191-1.228,0.572-1.616c0.396-0.375,0.846-0.565,1.35-0.565s0.953,0.19,1.344,0.56
		c0.389,0.375,0.586,0.906,0.586,1.608c0,0.695-0.197,1.233-0.586,1.608C264.77,90.632,264.32,90.815,263.816,90.815
		 M248.412,84.231v8.82h2.699V88.26c0-0.572,0.15-1.008,0.451-1.315c0.299-0.313,0.707-0.471,1.238-0.471
		c0.527,0,0.941,0.157,1.242,0.471c0.299,0.308,0.449,0.743,0.449,1.315v4.792h2.686v-5.153c0-1.159-0.312-2.078-0.939-2.747
		c-0.621-0.682-1.447-1.015-2.455-1.015c-1.227,0-2.113,0.463-2.672,1.39v-1.295H248.412z M241.773,93.153
		c1.311,0,2.4-0.408,3.271-1.241c0.873-0.837,1.309-1.935,1.309-3.284c0-1.363-0.436-2.454-1.322-3.271
		c-0.871-0.812-1.963-1.22-3.271-1.22s-2.404,0.408-3.283,1.22c-0.889,0.817-1.338,1.908-1.338,3.271
		c0,1.35,0.449,2.447,1.344,3.284C239.369,92.745,240.473,93.153,241.773,93.153 M241.773,90.85c-0.504,0-0.947-0.185-1.316-0.572
		c-0.373-0.375-0.564-0.921-0.564-1.636c0-0.723,0.178-1.268,0.545-1.636c0.369-0.375,0.805-0.565,1.309-0.565
		c0.506,0,0.941,0.19,1.309,0.565c0.369,0.368,0.547,0.913,0.547,1.636c0,0.715-0.172,1.261-0.533,1.636
		C242.715,90.665,242.279,90.85,241.773,90.85 M235.094,84.231h-2.705v8.813h2.705V84.231z M235.312,82.104
		c0-0.442-0.15-0.824-0.465-1.131c-0.299-0.307-0.666-0.456-1.115-0.456c-0.438,0-0.82,0.149-1.119,0.456
		c-0.307,0.307-0.463,0.688-0.463,1.131c0,0.45,0.156,0.825,0.463,1.132c0.299,0.3,0.682,0.457,1.119,0.457
		c0.449,0,0.816-0.157,1.115-0.457C235.162,82.93,235.312,82.555,235.312,82.104 M228.441,90.141v-3.667h1.773v-2.242h-1.773v-2.153
		h-2.699v2.153h-0.83v2.242h0.83v3.667c0,1.057,0.268,1.813,0.812,2.256c0.537,0.43,1.301,0.655,2.297,0.655h1.375v-2.297h-0.967
		C228.715,90.755,228.441,90.549,228.441,90.141 M216.875,84.231h-2.705V97.25h2.705v-5.486c0.627,0.934,1.5,1.39,2.604,1.39
		c1.111,0,2.053-0.415,2.83-1.261c0.775-0.838,1.172-1.923,1.172-3.237c0-1.315-0.396-2.405-1.172-3.245
		c-0.777-0.852-1.732-1.273-2.85-1.273c-1.125,0-1.984,0.415-2.584,1.254V84.231z M218.805,90.815c-0.504,0-0.961-0.184-1.342-0.565
		c-0.391-0.375-0.588-0.913-0.588-1.608c0-0.702,0.197-1.233,0.588-1.608c0.381-0.369,0.838-0.56,1.342-0.56s0.953,0.19,1.344,0.565
		c0.387,0.389,0.578,0.921,0.578,1.616s-0.191,1.227-0.578,1.602C219.758,90.639,219.309,90.815,218.805,90.815 M209.311,87.83
		h-3.307c0.068-0.402,0.26-0.743,0.559-1.001c0.287-0.253,0.654-0.389,1.084-0.389s0.805,0.136,1.125,0.389
		C209.084,87.087,209.262,87.428,209.311,87.83 M210.312,92.343c0.762-0.538,1.268-1.255,1.525-2.141h-2.93
		c-0.123,0.164-0.232,0.272-0.301,0.341c-0.088,0.068-0.205,0.137-0.375,0.205c-0.17,0.067-0.428,0.102-0.77,0.102
		c-0.34,0-0.66-0.123-0.955-0.368c-0.293-0.252-0.463-0.565-0.518-0.954h6.061c0.047-0.266,0.061-0.552,0.061-0.859
		c0-1.416-0.422-2.534-1.275-3.332c-0.852-0.798-1.928-1.199-3.223-1.199s-2.352,0.408-3.17,1.212
		c-0.811,0.812-1.221,1.903-1.221,3.279c0,1.363,0.41,2.46,1.229,3.292c0.824,0.825,1.881,1.233,3.162,1.233
		C208.662,93.153,209.562,92.888,210.312,92.343 M197.826,93.153c1.049,0,1.949-0.279,2.711-0.838c0.758-0.56,1.254-1.302,1.5-2.249
		h-2.932c-0.143,0.292-0.312,0.491-0.496,0.613c-0.186,0.115-0.457,0.17-0.783,0.17c-0.547,0-0.955-0.197-1.234-0.605
		c-0.281-0.403-0.416-0.941-0.416-1.603c0-0.668,0.135-1.199,0.416-1.608c0.279-0.402,0.701-0.607,1.287-0.607
		c0.574,0,0.982,0.267,1.227,0.791h2.932c-0.246-0.995-0.742-1.751-1.486-2.283c-0.75-0.531-1.656-0.797-2.725-0.797
		c-1.303,0-2.359,0.408-3.178,1.22c-0.818,0.817-1.227,1.915-1.227,3.285c0,1.363,0.408,2.46,1.227,3.285
		S196.523,93.153,197.826,93.153 M189.857,84.231l-1.424,2.29l-1.439-2.29h-3.033l2.863,4.546l-2.863,4.274h2.672l1.418-2.297
		l1.445,2.297h3.025l-2.834-4.554l2.834-4.267H189.857z M180.219,87.83h-3.305c0.068-0.402,0.258-0.743,0.559-1.001
		c0.287-0.253,0.654-0.389,1.084-0.389s0.811,0.136,1.125,0.389C179.996,87.087,180.172,87.428,180.219,87.83 M181.229,92.343
		c0.756-0.538,1.262-1.255,1.52-2.141h-2.93c-0.123,0.164-0.232,0.272-0.301,0.341c-0.082,0.068-0.205,0.137-0.375,0.205
		c-0.17,0.067-0.43,0.102-0.771,0.102c-0.34,0-0.66-0.123-0.953-0.368c-0.293-0.252-0.463-0.565-0.518-0.954h6.066
		c0.041-0.266,0.068-0.552,0.068-0.859c0-1.416-0.43-2.534-1.289-3.332c-0.852-0.798-1.928-1.199-3.217-1.199
		c-1.303,0-2.352,0.408-3.17,1.212c-0.818,0.812-1.227,1.903-1.227,3.279c0,1.363,0.408,2.46,1.232,3.292
		c0.818,0.825,1.875,1.233,3.164,1.233C179.572,93.153,180.471,92.888,181.229,92.343 M164.856,87.83h-3.303
		c0.079-0.402,0.259-0.743,0.553-1.001c0.3-0.253,0.664-0.389,1.093-0.389c0.427,0,0.805,0.136,1.118,0.389
		C164.638,87.087,164.815,87.428,164.856,87.83 M165.872,92.343c0.756-0.538,1.261-1.255,1.513-2.141h-2.92
		c-0.126,0.164-0.229,0.272-0.307,0.341c-0.085,0.068-0.201,0.137-0.378,0.205c-0.167,0.067-0.416,0.102-0.76,0.102
		c-0.34,0-0.661-0.123-0.954-0.368c-0.3-0.252-0.478-0.565-0.525-0.954h6.063c0.041-0.266,0.068-0.552,0.068-0.859
		c0-1.416-0.43-2.534-1.282-3.332c-0.845-0.798-1.925-1.199-3.224-1.199s-2.351,0.408-3.169,1.212
		c-0.814,0.812-1.22,1.903-1.22,3.279c0,1.363,0.413,2.46,1.231,3.292c0.821,0.825,1.874,1.233,3.159,1.233
		C164.206,93.153,165.116,92.888,165.872,92.343 M148.048,81.355v11.696h2.703V88.26c0-0.572,0.147-1.008,0.446-1.315
		c0.3-0.313,0.712-0.471,1.24-0.471c0.525,0,0.944,0.157,1.244,0.471c0.3,0.308,0.446,0.743,0.446,1.315v4.792h2.689v-5.153
		c0-1.159-0.317-2.078-0.944-2.747c-0.627-0.682-1.445-1.015-2.458-1.015c-1.22,0-2.105,0.463-2.665,1.39v-4.171H148.048z
		 M144.099,90.141v-3.667h1.765v-2.242h-1.765v-2.153h-2.709v2.153h-0.814v2.242h0.814v3.667c0,1.057,0.272,1.813,0.818,2.256
		c0.545,0.43,1.312,0.655,2.297,0.655h1.374v-2.297h-0.961C144.371,90.755,144.099,90.549,144.099,90.141 M127.709,97.107h1.489
		l5.228-12.733h-1.489l-2.699,7.015l-2.651-7.015h-1.585l3.432,8.527L127.709,97.107z M118.805,84.749
		c-0.552,0.354-0.978,0.805-1.271,1.363v-4.757h-1.435v11.696h1.435v-1.772c0.293,0.565,0.719,1.029,1.271,1.383
		c0.559,0.355,1.2,0.525,1.942,0.525c1.179,0,2.161-0.423,2.952-1.268c0.787-0.852,1.186-1.937,1.186-3.258
		c0-1.322-0.392-2.386-1.18-3.204c-0.784-0.817-1.772-1.227-2.958-1.227C120.004,84.231,119.364,84.402,118.805,84.749
		 M118.393,91.062c-0.573-0.594-0.859-1.377-0.859-2.352c0-0.969,0.287-1.759,0.859-2.346c0.579-0.593,1.271-0.886,2.075-0.886
		c0.801,0,1.493,0.287,2.072,0.853c0.572,0.572,0.858,1.342,0.858,2.331c0,0.981-0.286,1.778-0.858,2.385
		c-0.58,0.607-1.271,0.907-2.072,0.907C119.663,91.954,118.972,91.66,118.393,91.062 M100.804,84.374v8.678h1.438V88.15
		c0-0.879,0.211-1.54,0.638-1.99c0.426-0.449,1.012-0.682,1.758-0.682c0.74,0,1.319,0.232,1.745,0.682
		c0.419,0.45,0.627,1.111,0.627,1.99v4.901h1.424v-5.14c0-1.18-0.32-2.085-0.964-2.727c-0.64-0.634-1.445-0.954-2.399-0.954
		c-1.298,0-2.242,0.511-2.829,1.548v-1.405H100.804z M97.205,88.164h-5.459c0.054-0.852,0.333-1.52,0.838-2.018
		c0.508-0.49,1.145-0.729,1.905-0.729c0.767,0,1.404,0.246,1.918,0.75C96.926,86.664,97.191,87.333,97.205,88.164 M96.987,92.451
		c0.671-0.497,1.138-1.124,1.417-1.888h-1.55c-0.188,0.437-0.487,0.783-0.893,1.05c-0.405,0.259-0.906,0.389-1.493,0.389
		c-0.784,0-1.424-0.252-1.918-0.743c-0.504-0.504-0.777-1.186-0.818-2.052h6.908c0.044-0.259,0.065-0.545,0.065-0.853
		c0-1.199-0.385-2.188-1.152-2.957c-0.76-0.777-1.772-1.166-3.03-1.166c-1.265,0-2.283,0.409-3.077,1.227
		c-0.788,0.818-1.18,1.895-1.18,3.245c0,1.35,0.386,2.433,1.166,3.251c0.78,0.824,1.792,1.233,3.036,1.233
		C95.481,93.188,96.319,92.936,96.987,92.451 M84.119,93.052h1.625l3.397-8.678h-1.547l-2.675,7.328l-2.651-7.328h-1.53
		L84.119,93.052z M79.044,84.374h-1.438v8.678h1.438V84.374z M79.316,82.002c0-0.272-0.099-0.504-0.286-0.701
		c-0.191-0.185-0.42-0.272-0.686-0.272c-0.272,0-0.504,0.088-0.691,0.272c-0.188,0.197-0.287,0.429-0.287,0.701
		c0,0.273,0.099,0.512,0.279,0.696c0.181,0.19,0.413,0.279,0.685,0.279c0.279,0,0.508-0.089,0.699-0.279
		C79.218,82.514,79.316,82.275,79.316,82.002 M71.478,84.374v8.678h1.438v-4.744c0-0.948,0.188-1.615,0.579-1.997
		c0.382-0.389,0.94-0.58,1.68-0.58h0.378v-1.499c-1.244,0-2.123,0.532-2.638,1.608v-1.466H71.478z M60.164,82.099v10.953h3.463
		c1.765,0,3.159-0.484,4.185-1.432c1.019-0.955,1.53-2.283,1.53-3.994c0-1.704-0.512-3.053-1.53-4.049
		c-1.026-0.981-2.42-1.479-4.185-1.479H60.164z M61.603,83.311h2.024c1.374,0,2.426,0.383,3.159,1.14
		c0.726,0.763,1.091,1.819,1.091,3.176c0,1.362-0.365,2.419-1.091,3.177C66.053,91.565,65,91.94,63.626,91.94h-2.024V83.311z"/>
</g>
</svg>
