<?xml version="1.0" encoding="UTF-8"?> <svg xmlns="http://www.w3.org/2000/svg" xmlns:xlink="http://www.w3.org/1999/xlink" xml:space="preserve" width="94.1638mm" height="82.6228mm" version="1.1" style="shape-rendering:geometricPrecision; text-rendering:geometricPrecision; image-rendering:optimizeQuality; fill-rule:evenodd; clip-rule:evenodd" viewBox="0 0 8839 7755"> <defs> <style type="text/css"> .fil0 {fill:#2B2A29} .fil1 {fill:#2B2A29;fill-rule:nonzero} </style> </defs> <g id="Layer_x0020_1"> <metadata id="CorelCorpID_0Corel-Layer"></metadata> <path class="fil0" d="M1000 1732l3477 6023 0 -2816 -1038 -1799 -2439 -1408zm7424 0l-3477 6023 0 -2816 1038 -1799 2439 -1408z"></path> <path class="fil1" d="M2898 1399l-302 0 0 -140 0 -1119 0 -140 140 0 857 0c142,0 294,58 388,152 94,94 151,223 151,366 0,142 -57,271 -151,365 -33,33 -71,62 -113,86l386 430 -375 0 -326 -364 -514 0 0 -280 436 0 118 0c312,0 312,-475 0,-475l-695 0c0,373 0,746 0,1119zm4408 -1399l0 828c0,415 -408,601 -769,601 -361,0 -768,-186 -768,-601l0 -828 303 0 0 828c0,248 262,321 465,321 203,0 466,-73 466,-321l0 -828 303 0zm-2527 1399l0 -1119 -508 0 0 -280 1318 0 0 280 -508 0 0 1119 -302 0zm-2427 -140l0 140 -303 0 0 -140 0 -1119 0 -140 303 0 0 140 0 1119zm6464 -979l-963 0 0 839 986 0 0 280 -1288 0 0 -140 0 -1119 0 -140 1265 0 0 280zm-62 560l-760 0 0 -281 760 0 0 281zm-6879 -840l-809 1399 -257 0 -809 -1399 363 0 574 1031 574 -1031 364 0z"></path> </g> </svg> 