<?xml version="1.0" encoding="utf-8"?>
<!-- Generator: Adobe Illustrator 27.0.1, SVG Export Plug-In . SVG Version: 6.00 Build 0)  -->
<svg version="1.1" id="Layer_1" xmlns="http://www.w3.org/2000/svg" xmlns:xlink="http://www.w3.org/1999/xlink" x="0px" y="0px"
	 viewBox="0 0 320.9 98" style="enable-background:new 0 0 320.9 98;" xml:space="preserve">
<style type="text/css">
	.st0{fill:#2680BC;stroke:#1D1D1B;stroke-width:0.75;stroke-miterlimit:46.0374;}
	.st1{fill:#1D1D1B;}
</style>
<g>
	<path class="st0" d="M0.4,29.1L29,0.4h14L0.4,41.8V29.1z"/>
	<path class="st0" d="M0.4,53.3L53.5,0.4h15.1L0.4,68.2V53.3z"/>
	<path class="st0" d="M4.8,74.8L75.9,3.6l7.1,7.1L11.9,82L4.8,74.8z"/>
	<path class="st0" d="M99.2,69L70.6,97.6h-14l42.6-41.3V69z"/>
	<path class="st0" d="M99.2,44.8L46.1,97.6H30.9l68.2-67.8V44.8z"/>
	<path class="st0" d="M94.8,23.2L23.7,94.4l-7.1-7.1l71.1-71.2L94.8,23.2z"/>
</g>
<path class="st1" d="M159.7,73l-1.3-19.1c-0.1-2.8-0.2-6.4-0.2-9.8h-0.1c-0.8,3.3-2,7-3.1,9.9l-6.9,19.1h-5.2L135.9,54
	c-1.1-2.9-2.3-6.7-3.2-10h-0.1c0.1,3.5,0,7.1-0.1,9.8l-1.3,19.1h-9.4l3.5-47.9h9.4l7.9,20.8c1.2,3.1,2.5,7.2,3.4,10.4h0.1
	c0.9-3.2,2.2-7.2,3.4-10.4l7.7-20.8h8.8l3.6,47.9L159.7,73L159.7,73z"/>
<path class="st1" d="M205.1,73l-3-11h-11.5l-3,11H178l14.6-48.1h8.2L215.5,73H205.1z M197.5,43.9c-0.4-1.4-0.7-3.3-1.1-4.9h-0.1
	c-0.3,1.7-0.7,3.5-1.1,4.9l-2.5,9.8h7.1L197.5,43.9z"/>
<path class="st1" d="M234.4,53.4v19.6h-10V53.6l-14-28.5h10.7l5.9,12.1c0.8,1.7,1.8,4.1,2.5,6h0.1c0.7-1.9,1.8-4.3,2.6-6l5.9-12.1
	h10.1L234.4,53.4z"/>
<path class="st1" d="M276.6,35.8c-1.7-1.1-4.3-2-7.3-2c-6.8,0-11.6,6.4-11.6,15.5s4.8,15.4,12,15.4c3,0,5.6-0.7,7.4-1.7l-0.9,9.1
	c-2,1-4.7,1.5-8.4,1.5c-10.7,0-20.5-8.7-20.5-24.6s9.9-24.6,20.5-24.6c4.7,0,8.3,1,10.6,2.3L276.6,35.8z"/>
<path class="st1" d="M300.4,73.9c-11.4,0-20.5-9.8-20.5-24.8c0-15.1,9.1-24.8,20.5-24.8c11.3,0,20.5,9.8,20.5,24.8
	C320.9,64.1,311.7,73.9,300.4,73.9z M300.4,33.5c-5.3,0-9.9,5.9-9.9,15.5c0,9.7,4.6,15.5,9.9,15.5c5.2,0,10-5.9,10-15.5
	C310.4,39.4,305.6,33.5,300.4,33.5z"/>
</svg>
