<svg id="katman_1" data-name="katman 1" xmlns="http://www.w3.org/2000/svg" viewBox="0 0 595.28 193.56"><defs><style>.cls-1{fill:#e42320;stroke:#1d1d1b;stroke-miterlimit:10;}.cls-2{fill:#1d1d1b;}</style></defs><polygon class="cls-1" points="19.26 72.97 49.28 42.94 63.95 42.94 19.26 86.25 19.26 72.97"/><polygon class="cls-1" points="19.26 98.33 75 42.94 90.87 42.94 19.26 114.04 19.26 98.33"/><rect class="cls-1" x="12.12" y="82.12" width="105.55" height="10.53" transform="translate(-42.78 71.48) rotate(-45)"/><polygon class="cls-1" points="122.92 114.8 92.9 144.82 78.23 144.82 122.92 101.51 122.92 114.8"/><polygon class="cls-1" points="122.92 89.43 67.19 144.82 51.31 144.82 122.92 73.73 122.92 89.43"/><rect class="cls-1" x="24.52" y="95.11" width="105.55" height="10.53" transform="translate(202.92 116.7) rotate(135)"/><path class="cls-2" d="M196.72,114H192l-1.1-19.9c-.35-6.32-.81-14.5-.76-19h-.17c-1.45,5-3.25,10.44-5.39,16.59l-7.89,22.15h-3.54l-7.37-21.69c-2.14-6.38-3.82-12-5-17h-.18c-.11,5.39-.46,12.7-.87,19.49L158.44,114h-4.59l3.08-44.2h5.91l7.78,22.45c1.85,5.51,3.3,10.2,4.46,14.79h.18c1.1-4.47,2.61-9.11,4.58-14.79l8.06-22.45h6Z"/><path class="cls-2" d="M237,114h-5.11l-4.75-14.33H211.74L207.1,114h-4.93l14.61-44.2h5.57ZM226.12,95.88l-4.35-13.11c-.93-3-1.68-5.79-2.26-8.4h-.17c-.58,2.66-1.4,5.45-2.21,8.23l-4.41,13.28Z"/><path class="cls-2" d="M270.14,69.84,255.93,95.07v19h-4.81V95.19L237.66,69.84h5.51l6.15,12.35c1.68,3.31,3.08,6.15,4.41,9.34h.17c1.22-3,2.73-6,4.47-9.39l6.38-12.3Z"/><path class="cls-2" d="M304.19,112.7a27.1,27.1,0,0,1-11,2c-11.37,0-20.53-7.36-20.53-22.33,0-14.26,8.87-23.14,21.81-23.14,5.27,0,8.35,1.11,9.74,1.8l-1.28,4.06a19.27,19.27,0,0,0-8.35-1.8c-10,0-16.88,6.73-16.88,18.91,0,11.6,6.27,18.44,16.59,18.44a22,22,0,0,0,8.87-1.79Z"/><path class="cls-2" d="M346.53,91.53c0,15.55-8.7,23.2-19.14,23.2-11,0-18.74-8.64-18.74-22.44,0-14.39,8.18-23.15,19.26-23.15C339.22,69.14,346.53,78.19,346.53,91.53Zm-32.83.64c0,9.4,4.87,18.56,13.86,18.56s13.92-8.87,13.92-19c0-8.87-4.35-18.61-13.8-18.61C317.93,73.15,313.7,82.77,313.7,92.17Z"/><path class="cls-2" d="M165,125.47h-6.3v19.35h-2.32V125.47h-6.27v-2H165Z"/><path class="cls-2" d="M178.53,144.82H167.28V123.48h10.78v2H169.6v7.23h8v1.93h-8v8.26h8.93Z"/><path class="cls-2" d="M196,144.82h-2.74l-7-10.7-2,2.33v8.37H182V123.48h2.32V133.9h.11c.53-.81,1.12-1.6,1.65-2.3l6.5-8.12h2.86l-7.51,9.08Z"/><path class="cls-2" d="M207.71,126.12a7.18,7.18,0,0,0-3.75-1c-3,0-4.09,1.82-4.09,3.36,0,2.1,1.29,3.16,4.14,4.36,3.45,1.46,5.21,3.22,5.21,6.28,0,3.38-2.46,6-7.06,6a9.75,9.75,0,0,1-5.09-1.35l.64-1.93a8.68,8.68,0,0,0,4.59,1.32c2.86,0,4.54-1.54,4.54-3.84,0-2.1-1.15-3.39-3.92-4.51-3.22-1.2-5.4-3.08-5.4-6,0-3.24,2.63-5.62,6.52-5.62a8.71,8.71,0,0,1,4.37,1Z"/><path class="cls-2" d="M225.43,125.47h-6.3v19.35h-2.32V125.47h-6.27v-2h14.89Z"/><path class="cls-2" d="M227.5,120.52A1.49,1.49,0,0,1,229,119a1.44,1.44,0,0,1,1.4,1.49,1.43,1.43,0,0,1-1.4,1.42A1.47,1.47,0,0,1,227.5,120.52Zm.26,3h2.35v21.31h-2.35Z"/><path class="cls-2" d="M246,144.82H234.9V123.48h2.32v19.35H246Z"/><path class="cls-2" d="M266.84,144.82H255.59V123.48h10.78v2h-8.46v7.23h7.95v1.93h-7.95v8.26h8.93Z"/><path class="cls-2" d="M285.32,144.82H283l-6.8-11.23a64.49,64.49,0,0,1-3.84-7.11l-.11,0c.19,2.71.22,5.21.22,8.9v9.41h-2.18V123.48h2.43l6.89,11.23a65.66,65.66,0,0,1,3.72,7l.06,0c-.22-3-.28-5.52-.28-8.88v-9.3h2.21Z"/><path class="cls-2" d="M290.08,123.76a34.22,34.22,0,0,1,5.38-.44c8.57,0,11,5.06,11,10.3a11.68,11.68,0,0,1-2.91,8.37c-1.88,1.93-5,3-8.88,3a37.38,37.38,0,0,1-4.62-.23ZM292.41,143a19.39,19.39,0,0,0,2.71.14c5.77,0,8.93-3.27,8.93-9.38,0-5.54-3-8.54-8.51-8.54a16.59,16.59,0,0,0-3.13.28Z"/><path class="cls-2" d="M324.72,136.25c0,6.41-3.31,8.91-7.56,8.91-4,0-7.14-2.33-7.14-8.77V123.51h2.32v12.91c0,4.84,2.13,6.8,4.93,6.8,3.08,0,5.12-2.07,5.12-6.8V123.51h2.33Zm-11.57-15.79a1.45,1.45,0,0,1,1.43-1.48,1.41,1.41,0,0,1,1.4,1.48,1.39,1.39,0,0,1-1.4,1.48A1.43,1.43,0,0,1,313.15,120.46Zm5.66,0a1.42,1.42,0,0,1,1.4-1.48,1.48,1.48,0,1,1-1.4,1.48Z"/><path class="cls-2" d="M339,126.12a7.18,7.18,0,0,0-3.75-1c-3,0-4.09,1.82-4.09,3.36,0,2.1,1.28,3.16,4.14,4.36,3.45,1.46,5.21,3.22,5.21,6.28,0,3.38-2.46,6-7.06,6a9.75,9.75,0,0,1-5.09-1.35l.64-1.93a8.68,8.68,0,0,0,4.59,1.32c2.86,0,4.54-1.54,4.54-3.84,0-2.1-1.15-3.39-3.92-4.51-3.22-1.2-5.41-3.08-5.41-6,0-3.24,2.64-5.62,6.53-5.62a8.77,8.77,0,0,1,4.37,1Z"/><path class="cls-2" d="M356.72,125.47h-6.3v19.35H348.1V125.47h-6.28v-2h14.9Z"/><path class="cls-2" d="M367.36,134.6c1.65.53,2.63,2.13,3.14,4.45a30.18,30.18,0,0,0,1.57,5.77h-2.41a27.12,27.12,0,0,1-1.37-5.15c-.62-3-1.8-4.29-4.32-4.29h-2.6v9.44h-2.32v-21a25.15,25.15,0,0,1,4.84-.45c2.77,0,4.59.56,5.85,1.74a5.36,5.36,0,0,1,1.6,4,5.61,5.61,0,0,1-4,5.46Zm-3.25-1c3,0,4.88-1.68,4.88-4.25,0-3.17-2.38-4.15-5-4.15a11.77,11.77,0,0,0-2.63.23v8.17Z"/><path class="cls-2" d="M374.92,120.52a1.49,1.49,0,0,1,1.46-1.49,1.44,1.44,0,0,1,1.4,1.49,1.43,1.43,0,0,1-1.4,1.42A1.47,1.47,0,0,1,374.92,120.52Zm.25,3h2.35v21.31h-2.35Z"/><path class="cls-2" d="M400.48,129.56l-5.79,15.26H392.5l-5.62-15.29h2.49l3.05,8.88c.48,1.37.9,2.66,1.23,3.92h.09c.33-1.26.78-2.55,1.26-3.92l3-8.85Z"/><path class="cls-2" d="M413.92,144.18a11,11,0,0,1-4.78.95c-4.46,0-7.12-3.14-7.12-7.7,0-4.79,2.69-8.23,6.81-8.23,4.7,0,5.91,4.31,5.91,7,0,.53,0,.92-.06,1.29H404.29c0,4.22,2.44,5.82,5.18,5.82a9.73,9.73,0,0,0,4-.78Zm-1.48-8.46c0-2.07-.84-4.76-3.84-4.76-2.8,0-4,2.66-4.25,4.76Z"/><path class="cls-2" d="M437.3,125.47H431v19.35h-2.32V125.47h-6.27v-2H437.3Z"/><path class="cls-2" d="M439.37,120.52a1.49,1.49,0,0,1,1.46-1.49,1.44,1.44,0,0,1,1.4,1.49,1.43,1.43,0,0,1-1.4,1.42A1.47,1.47,0,0,1,439.37,120.52Zm.26,3H442v21.31h-2.35Z"/><path class="cls-2" d="M460.77,144.18a13.24,13.24,0,0,1-5.32.95c-5.49,0-9.92-3.56-9.92-10.78,0-6.89,4.29-11.17,10.53-11.17a10.81,10.81,0,0,1,4.71.86l-.62,2a9.35,9.35,0,0,0-4-.86c-4.85,0-8.15,3.24-8.15,9.12,0,5.6,3,8.91,8,8.91a10.62,10.62,0,0,0,4.28-.87Z"/><path class="cls-2" d="M479.41,144.82H477l-2.3-6.92h-7.42L465,144.82h-2.38l7.06-21.34h2.69Zm-5.23-8.76-2.1-6.33c-.45-1.46-.81-2.8-1.09-4.06h-.09c-.28,1.29-.67,2.63-1.06,4l-2.13,6.42Z"/><path class="cls-2" d="M490.84,134.6c1.65.53,2.63,2.13,3.13,4.45a31.84,31.84,0,0,0,1.57,5.77h-2.41a28.84,28.84,0,0,1-1.37-5.15c-.61-3-1.79-4.29-4.31-4.29h-2.6v9.44h-2.33v-21a25.33,25.33,0,0,1,4.85-.45c2.77,0,4.59.56,5.85,1.74a5.36,5.36,0,0,1,1.59,4,5.6,5.6,0,0,1-4,5.46Zm-3.25-1c3,0,4.87-1.68,4.87-4.25,0-3.17-2.38-4.15-5-4.15a11.77,11.77,0,0,0-2.63.23v8.17Z"/><path class="cls-2" d="M509.91,144.82H498.65V123.48h10.78v2H501v7.23h8v1.93h-8v8.26h8.94Z"/><path class="cls-2" d="M525.84,125.47h-6.3v19.35h-2.33V125.47h-6.27v-2h14.9Z"/><path class="cls-2" d="M549.94,144.82h-2.46l-2.3-6.92h-7.42l-2.24,6.92h-2.38l7.06-21.34h2.69Zm-5.23-8.76-2.1-6.33c-.45-1.46-.81-2.8-1.09-4.06h-.09c-.28,1.29-.67,2.63-1.06,4l-2.13,6.42Z"/><path class="cls-2" d="M552.32,143.39a1.68,1.68,0,1,1,3.34,0,1.67,1.67,0,1,1-3.34,0Z"/><path class="cls-2" d="M563.33,145.13a9.54,9.54,0,0,1-5.29-1.35l.64-1.9a8.71,8.71,0,0,0,4.56,1.32c2.89,0,4.54-1.71,4.54-3.9s-1.15-3.3-3.89-4.45c-3.22-1.17-5.38-3-5.38-6,0-3.27,2.63-5.63,6.53-5.63a8.67,8.67,0,0,1,4.34,1l-.7,1.88a6.75,6.75,0,0,0-3.67-1c-3,0-4.12,1.87-4.12,3.38,0,2,1.21,3.14,4.09,4.37,3.44,1.46,5.21,3.17,5.21,6.22A5.83,5.83,0,0,1,565,145l-.89,1.48a2.35,2.35,0,0,1,2.15,2.22c0,1.73-1.48,2.46-3.11,2.46a4.32,4.32,0,0,1-2.1-.53l.42-1.26a3.86,3.86,0,0,0,1.74.45c.7,0,1.32-.31,1.32-1s-1-1.23-2.38-1.34Z"/><path class="cls-2" d="M573.18,143.39a1.68,1.68,0,1,1,3.34,0,1.67,1.67,0,1,1-3.34,0Z"/></svg>