<?xml version="1.0" encoding="UTF-8" standalone="no" ?>
<!DOCTYPE svg PUBLIC "-//W3C//DTD SVG 1.1//EN" "http://www.w3.org/Graphics/SVG/1.1/DTD/svg11.dtd">
<svg xmlns="http://www.w3.org/2000/svg" xmlns:xlink="http://www.w3.org/1999/xlink" version="1.1" width="1080" height="1080" viewBox="0 0 1080 1080" xml:space="preserve">
<desc>Created with Fabric.js 5.2.4</desc>
<defs>
</defs>
<g transform="matrix(1 0 0 1 540 540)" id="2de35c76-9106-40b8-a7da-8771c9ef037d"  >
<rect style="stroke: none; stroke-width: 1; stroke-dasharray: none; stroke-linecap: butt; stroke-dashoffset: 0; stroke-linejoin: miter; stroke-miterlimit: 4; fill: rgb(255,255,255); fill-rule: nonzero; opacity: 1; visibility: hidden;" vector-effect="non-scaling-stroke"  x="-540" y="-540" rx="0" ry="0" width="1080" height="1080" />
</g>
<g transform="matrix(1 0 0 1 540 540)" id="53cce358-b0a9-4598-9575-a812d21d7ce3"  >
</g>
<g transform="matrix(1 0 0 1 540 540)"  >
<g style="" vector-effect="non-scaling-stroke"   >
		<g transform="matrix(1 0 0 1 -121.89 -121.06)"  >
<polygon style="stroke: rgb(29,29,27); stroke-width: 4.1341; stroke-dasharray: none; stroke-linecap: butt; stroke-dashoffset: 0; stroke-linejoin: miter; stroke-miterlimit: 10; fill: rgb(182,21,18); fill-rule: nonzero; opacity: 1;" vector-effect="non-scaling-stroke"  points="-92.39,34.6 31.74,-89.53 92.38,-89.53 -92.39,89.53 " />
</g>
		<g transform="matrix(1 0 0 1 -66.25 -63.64)"  >
<polygon style="stroke: rgb(29,29,27); stroke-width: 4.1341; stroke-dasharray: none; stroke-linecap: butt; stroke-dashoffset: 0; stroke-linejoin: miter; stroke-miterlimit: 10; fill: rgb(182,21,18); fill-rule: nonzero; opacity: 1;" vector-effect="non-scaling-stroke"  points="-148.03,82.03 82.4,-146.95 148.03,-146.95 -148.03,146.96 " />
</g>
		<g transform="matrix(0.71 -0.71 0.71 0.71 -25.63 -26.85)"  >
<rect style="stroke: rgb(29,29,27); stroke-width: 4.1341; stroke-dasharray: none; stroke-linecap: butt; stroke-dashoffset: 0; stroke-linejoin: miter; stroke-miterlimit: 10; fill: rgb(182,21,18); fill-rule: nonzero; opacity: 1;" vector-effect="non-scaling-stroke"  x="-218.17" y="-21.76" rx="0" ry="0" width="436.34" height="43.52" />
</g>
		<g transform="matrix(1 0 0 1 121.89 121.06)"  >
<polygon style="stroke: rgb(29,29,27); stroke-width: 4.1341; stroke-dasharray: none; stroke-linecap: butt; stroke-dashoffset: 0; stroke-linejoin: miter; stroke-miterlimit: 10; fill: rgb(182,21,18); fill-rule: nonzero; opacity: 1;" vector-effect="non-scaling-stroke"  points="92.38,-34.6 -31.75,89.53 -92.38,89.53 92.38,-89.53 " />
</g>
		<g transform="matrix(1 0 0 1 66.25 63.63)"  >
<polygon style="stroke: rgb(29,29,27); stroke-width: 4.1341; stroke-dasharray: none; stroke-linecap: butt; stroke-dashoffset: 0; stroke-linejoin: miter; stroke-miterlimit: 10; fill: rgb(182,21,18); fill-rule: nonzero; opacity: 1;" vector-effect="non-scaling-stroke"  points="148.03,-82.03 -82.4,146.95 -148.03,146.95 148.03,-146.95 " />
</g>
		<g transform="matrix(-0.71 0.71 -0.71 -0.71 25.62 26.85)"  >
<rect style="stroke: rgb(29,29,27); stroke-width: 4.1341; stroke-dasharray: none; stroke-linecap: butt; stroke-dashoffset: 0; stroke-linejoin: miter; stroke-miterlimit: 10; fill: rgb(182,21,18); fill-rule: nonzero; opacity: 1;" vector-effect="non-scaling-stroke"  x="-218.17" y="-21.76" rx="0" ry="0" width="436.34" height="43.52" />
</g>
</g>
</g>
</svg>