<svg id="katman_1" data-name="katman 1" xmlns="http://www.w3.org/2000/svg" xmlns:xlink="http://www.w3.org/1999/xlink" viewBox="0 0 1478.97 1848.68"><defs><style>.cls-1{fill:none;}.cls-2{clip-path:url(#clip-path);}.cls-3{clip-path:url(#clip-path-2);}.cls-4{clip-path:url(#clip-path-3);}.cls-5{clip-path:url(#clip-path-4);}.cls-6{clip-path:url(#clip-path-5);}.cls-7{clip-path:url(#clip-path-6);}</style><clipPath id="clip-path" transform="translate(-169.75 487)"><polygon class="cls-1" points="434.59 327.99 738.96 23.62 887.64 23.62 434.59 462.68 434.59 327.99"/></clipPath><clipPath id="clip-path-2" transform="translate(-169.75 487)"><polygon class="cls-1" points="434.59 585.13 999.59 23.62 1160.52 23.62 434.59 744.31 434.59 585.13"/></clipPath><clipPath id="clip-path-3" transform="translate(-169.75 487)"><rect class="cls-1" x="362.2" y="420.8" width="1069.92" height="106.7" transform="translate(-72.5 773.27) rotate(-45)"/></clipPath><clipPath id="clip-path-4" transform="translate(-169.75 487)"><polygon class="cls-1" points="1485.41 752.01 1181.04 1056.38 1032.36 1056.38 1485.41 617.32 1485.41 752.01"/></clipPath><clipPath id="clip-path-5" transform="translate(-169.75 487)"><polygon class="cls-1" points="1485.41 494.87 920.41 1056.38 759.48 1056.38 1485.41 335.69 1485.41 494.87"/></clipPath><clipPath id="clip-path-6" transform="translate(-169.75 487)"><rect class="cls-1" x="487.88" y="552.5" width="1069.92" height="106.7" transform="translate(2174.49 310.99) rotate(135)"/></clipPath></defs><g class="cls-2"><image width="4032" height="3024" transform="matrix(0, -0.3, 0.3, 0, 0, 1202.04)" xlink:href="web/IMG_7392.jpg"/></g><g class="cls-3"><image width="4032" height="3024" transform="translate(94.35 1449.2) rotate(-90) scale(0.3)" xlink:href="web/IMG_7381.jpg"/></g><g class="cls-4"><image width="4032" height="3024" transform="matrix(0, -0.3, 0.3, 0, 284.3, 1516.63)" xlink:href="web/IMG_7395.jpg"/></g><g class="cls-5"><image width="4032" height="3024" transform="translate(699.3 1848.68) rotate(-90) scale(0.26)" xlink:href="web/IMG_7393.jpg"/></g><g class="cls-6"><image width="4032" height="3024" transform="translate(1403.24 754.26) rotate(90) scale(0.26)" xlink:href="web/IMG_7369.jpg"/></g><g class="cls-7"><image width="4032" height="3024" transform="translate(336.51 1718.25) rotate(-90) scale(0.33)" xlink:href="web/IMG_7399.jpg"/></g></svg>